# Blender v2.77 (sub 0) OBJ File: 'Low_Poly_Ladder_02_Medium.blend'
# www.blender.org
mtllib Low_Poly_Ladder_02_Medium.mtl
o Low_Poly_Ladder_02_Medium_Circle.001
v 0.900000 0.000000 -0.075000
v 0.900000 0.053033 -0.053033
v 0.900000 0.075000 0.000000
v 0.900000 0.053033 0.053033
v 0.900000 0.000000 0.075000
v 0.900000 -0.053033 0.053033
v 0.900000 -0.075000 0.000000
v 0.900000 -0.053033 -0.053033
v -0.900000 0.000000 -0.075000
v -0.900000 0.053033 -0.053033
v -0.900000 0.075000 -0.000000
v -0.900000 0.053033 0.053033
v -0.900000 0.000000 0.075000
v -0.900000 -0.053033 0.053033
v -0.900000 -0.075000 -0.000000
v -0.900000 -0.053033 -0.053033
v 1.000000 -0.500000 -0.150000
v 0.893934 -0.500000 -0.106066
v 0.850000 -0.500000 0.000000
v 0.893934 -0.500000 0.106066
v 1.000000 -0.500000 0.150000
v 1.106066 -0.500000 0.106066
v 1.150000 -0.500000 -0.000000
v 1.106066 -0.500000 -0.106066
v 0.893934 0.500000 -0.106066
v 1.000000 0.500000 -0.150000
v 0.850000 0.500000 0.000000
v 0.893934 0.500000 0.106066
v 1.000000 0.500000 0.150000
v 1.106066 0.500000 0.106066
v 1.150000 0.500000 -0.000000
v 1.106066 0.500000 -0.106066
v -1.000000 -0.500000 -0.150000
v -0.893934 -0.500000 -0.106066
v -0.850000 -0.500000 0.000000
v -0.893934 -0.500000 0.106066
v -1.000000 -0.500000 0.150000
v -1.106066 -0.500000 0.106066
v -1.150000 -0.500000 -0.000000
v -1.106066 -0.500000 -0.106066
v -0.893934 0.500000 -0.106066
v -1.000000 0.500000 -0.150000
v -0.850000 0.500000 0.000000
v -0.893934 0.500000 0.106066
v -1.000000 0.500000 0.150000
v -1.106066 0.500000 0.106066
v -1.150000 0.500000 -0.000000
v -1.106066 0.500000 -0.106066
v 0.900000 1.000000 -0.075000
v 0.900000 1.053033 -0.053033
v 0.900000 1.075000 0.000000
v 0.900000 1.053033 0.053033
v 0.900000 1.000000 0.075000
v 0.900000 0.946967 0.053033
v 0.900000 0.925000 0.000000
v 0.900000 0.946967 -0.053033
v -0.900000 1.000000 -0.075000
v -0.900000 1.053033 -0.053033
v -0.900000 1.075000 -0.000000
v -0.900000 1.053033 0.053033
v -0.900000 1.000000 0.075000
v -0.900000 0.946967 0.053033
v -0.900000 0.925000 -0.000000
v -0.900000 0.946967 -0.053033
v 0.893934 1.500000 -0.106066
v 1.000000 1.500000 -0.150000
v 0.850000 1.500000 0.000000
v 0.893934 1.500000 0.106066
v 1.000000 1.500000 0.150000
v 1.106066 1.500000 0.106066
v 1.150000 1.500000 -0.000000
v 1.106066 1.500000 -0.106066
v -0.893934 1.500000 -0.106066
v -1.000000 1.500000 -0.150000
v -0.850000 1.500000 0.000000
v -0.893934 1.500000 0.106066
v -1.000000 1.500000 0.150000
v -1.106066 1.500000 0.106066
v -1.150000 1.500000 -0.000000
v -1.106066 1.500000 -0.106066
v 0.900000 2.000000 -0.075000
v 0.900000 2.053033 -0.053033
v 0.900000 2.075000 0.000000
v 0.900000 2.053033 0.053033
v 0.900000 2.000000 0.075000
v 0.900000 1.946967 0.053033
v 0.900000 1.925000 0.000000
v 0.900000 1.946967 -0.053033
v -0.900000 2.000000 -0.075000
v -0.900000 2.053033 -0.053033
v -0.900000 2.075001 -0.000000
v -0.900000 2.053033 0.053033
v -0.900000 2.000000 0.075000
v -0.900000 1.946967 0.053033
v -0.900000 1.925000 -0.000000
v -0.900000 1.946967 -0.053033
v 0.893934 2.500000 -0.106066
v 1.000000 2.500000 -0.150000
v 0.850000 2.500000 0.000000
v 0.893934 2.500000 0.106066
v 1.000000 2.500000 0.150000
v 1.106066 2.500000 0.106066
v 1.150000 2.500000 -0.000000
v 1.106066 2.500000 -0.106066
v -0.893934 2.500000 -0.106066
v -1.000000 2.500000 -0.150000
v -0.850000 2.500000 0.000000
v -0.893934 2.500000 0.106066
v -1.000000 2.500000 0.150000
v -1.106066 2.500000 0.106066
v -1.150000 2.500000 -0.000000
v -1.106066 2.500000 -0.106066
v 0.900000 3.000000 -0.075000
v 0.900000 3.053034 -0.053033
v 0.900000 3.075001 0.000000
v 0.900000 3.053033 0.053033
v 0.900000 3.000000 0.075000
v 0.900000 2.946967 0.053033
v 0.900000 2.925000 0.000000
v 0.900000 2.946967 -0.053033
v -0.900000 3.000001 -0.075000
v -0.900000 3.053034 -0.053033
v -0.900000 3.075001 -0.000000
v -0.900000 3.053034 0.053033
v -0.900000 3.000001 0.075000
v -0.900000 2.946968 0.053033
v -0.900000 2.925000 -0.000000
v -0.900000 2.946968 -0.053033
v 0.893934 3.500000 -0.106066
v 1.000000 3.500000 -0.150000
v 0.850000 3.500000 0.000000
v 0.893934 3.500000 0.106066
v 1.000000 3.500000 0.150000
v 1.106066 3.500000 0.106066
v 1.150000 3.500000 -0.000000
v 1.106066 3.500000 -0.106066
v -0.893934 3.500000 -0.106066
v -1.000000 3.500000 -0.150000
v -0.850000 3.500000 0.000000
v -0.893934 3.500000 0.106066
v -1.000000 3.500000 0.150000
v -1.106066 3.500000 0.106066
v -1.150000 3.500000 -0.000000
v -1.106066 3.500000 -0.106066
v 0.900000 4.000000 -0.075000
v 0.900000 4.053034 -0.053033
v 0.900000 4.075001 0.000000
v 0.900000 4.053033 0.053033
v 0.900000 4.000000 0.075000
v 0.900000 3.946968 0.053033
v 0.900000 3.925001 0.000000
v 0.900000 3.946968 -0.053033
v -0.900000 4.000001 -0.075000
v -0.900000 4.053034 -0.053033
v -0.900000 4.075001 -0.000000
v -0.900000 4.053034 0.053033
v -0.900000 4.000001 0.075000
v -0.900000 3.946968 0.053033
v -0.900000 3.925001 -0.000000
v -0.900000 3.946968 -0.053033
v 0.893934 4.500000 -0.106066
v 1.000000 4.500000 -0.150000
v 0.850000 4.500000 0.000000
v 0.893934 4.500000 0.106066
v 1.000000 4.500000 0.150000
v 1.106066 4.500000 0.106066
v 1.150000 4.500000 -0.000000
v 1.106066 4.500000 -0.106066
v -0.893934 4.500001 -0.106066
v -1.000000 4.500001 -0.150000
v -0.850000 4.500001 0.000000
v -0.893934 4.500001 0.106066
v -1.000000 4.500001 0.150000
v -1.106066 4.500001 0.106066
v -1.150000 4.500001 -0.000000
v -1.106066 4.500001 -0.106066
v 0.900000 5.000000 -0.075000
v 0.900000 5.053034 -0.053033
v 0.900000 5.075001 0.000000
v 0.900000 5.053034 0.053033
v 0.900000 5.000000 0.075000
v 0.900000 4.946968 0.053033
v 0.900000 4.925001 0.000000
v 0.900000 4.946968 -0.053033
v -0.900000 5.000000 -0.075000
v -0.900000 5.053034 -0.053033
v -0.900000 5.075001 -0.000000
v -0.900000 5.053034 0.053033
v -0.900000 5.000000 0.075000
v -0.900000 4.946968 0.053033
v -0.900000 4.925001 -0.000000
v -0.900000 4.946968 -0.053033
v 0.893934 5.500000 -0.106066
v 1.000000 5.500000 -0.150000
v 0.850000 5.500000 0.000000
v 0.893934 5.500000 0.106066
v 1.000000 5.500000 0.150000
v 1.106066 5.500000 0.106066
v 1.150000 5.500000 -0.000000
v 1.106066 5.500000 -0.106066
v -0.893934 5.500000 -0.106066
v -1.000000 5.500000 -0.150000
v -0.850000 5.500000 0.000000
v -0.893934 5.500000 0.106066
v -1.000000 5.500000 0.150000
v -1.106066 5.500000 0.106066
v -1.150000 5.500000 -0.000000
v -1.106066 5.500000 -0.106066
v 0.899999 6.000001 -0.075000
v 0.899999 6.053034 -0.053033
v 0.899999 6.075001 0.000000
v 0.899999 6.053034 0.053033
v 0.899999 6.000001 0.075000
v 0.899999 5.946968 0.053033
v 0.899999 5.925001 0.000000
v 0.899999 5.946968 -0.053033
v -0.900000 6.000001 -0.075000
v -0.900000 6.053034 -0.053033
v -0.900000 6.075001 -0.000000
v -0.900000 6.053034 0.053033
v -0.900000 6.000001 0.075000
v -0.900000 5.946968 0.053033
v -0.900000 5.925001 -0.000000
v -0.900000 5.946968 -0.053033
v 0.893933 6.500000 -0.106066
v 0.999999 6.500000 -0.150000
v 0.850000 6.500000 0.000000
v 0.893933 6.500000 0.106066
v 0.999999 6.500000 0.150000
v 1.106066 6.500000 0.106066
v 1.150000 6.500000 -0.000000
v 1.106066 6.500000 -0.106066
v -0.893934 6.500000 -0.106066
v -1.000000 6.500000 -0.150000
v -0.850000 6.500000 0.000000
v -0.893934 6.500000 0.106066
v -1.000000 6.500000 0.150000
v -1.106066 6.500000 0.106066
v -1.150000 6.500000 -0.000000
v -1.106066 6.500000 -0.106066
v 0.899999 7.000001 -0.075000
v 0.899999 7.053034 -0.053033
v 0.899999 7.075001 0.000000
v 0.899999 7.053034 0.053033
v 0.899999 7.000001 0.075000
v 0.899999 6.946968 0.053033
v 0.899999 6.925001 0.000000
v 0.899999 6.946968 -0.053033
v -0.900000 7.000001 -0.075000
v -0.900000 7.053034 -0.053033
v -0.900000 7.075001 -0.000000
v -0.900000 7.053034 0.053033
v -0.900000 7.000001 0.075000
v -0.900000 6.946968 0.053033
v -0.900000 6.925001 -0.000000
v -0.900000 6.946968 -0.053033
v 0.893933 7.500001 -0.106066
v 0.999999 7.500001 -0.150000
v 0.849999 7.500001 0.000000
v 0.893933 7.500001 0.106066
v 0.999999 7.500001 0.150000
v 1.106066 7.500001 0.106066
v 1.149999 7.500001 -0.000000
v 1.106066 7.500001 -0.106066
v -0.893934 7.500001 -0.106066
v -1.000000 7.500001 -0.150000
v -0.850000 7.500001 0.000000
v -0.893934 7.500001 0.106066
v -1.000000 7.500001 0.150000
v -1.106067 7.500001 0.106066
v -1.150001 7.500001 -0.000000
v -1.106067 7.500001 -0.106066
v 0.899999 8.000001 -0.075000
v 0.899999 8.053035 -0.053033
v 0.899999 8.075002 0.000000
v 0.899999 8.053035 0.053033
v 0.899999 8.000001 0.075000
v 0.899999 7.946968 0.053033
v 0.899999 7.925001 0.000000
v 0.899999 7.946968 -0.053033
v -0.900001 8.000001 -0.075000
v -0.900001 8.053035 -0.053033
v -0.900001 8.075002 -0.000000
v -0.900001 8.053035 0.053033
v -0.900001 8.000001 0.075000
v -0.900001 7.946968 0.053033
v -0.900001 7.925001 -0.000000
v -0.900001 7.946968 -0.053033
v 0.893933 8.500001 -0.106066
v 0.999999 8.500001 -0.150000
v 0.849999 8.500001 0.000000
v 0.893933 8.500001 0.106066
v 0.999999 8.500001 0.150000
v 1.106066 8.500001 0.106066
v 1.149999 8.500001 -0.000000
v 1.106066 8.500001 -0.106066
v -0.893934 8.500001 -0.106066
v -1.000000 8.500001 -0.150000
v -0.850001 8.500001 0.000000
v -0.893934 8.500001 0.106066
v -1.000000 8.500001 0.150000
v -1.106067 8.500001 0.106066
v -1.150001 8.500001 -0.000000
v -1.106067 8.500001 -0.106066
v 0.899999 9.000002 -0.075000
v 0.899999 9.053035 -0.053033
v 0.899999 9.075002 0.000000
v 0.899999 9.053035 0.053033
v 0.899999 9.000002 0.075000
v 0.899999 8.946968 0.053033
v 0.899999 8.925001 0.000000
v 0.899999 8.946968 -0.053033
v -0.900001 9.000002 -0.075000
v -0.900001 9.053035 -0.053033
v -0.900001 9.075002 -0.000000
v -0.900001 9.053035 0.053033
v -0.900001 9.000002 0.075000
v -0.900001 8.946968 0.053033
v -0.900001 8.925001 -0.000000
v -0.900001 8.946968 -0.053033
v 0.893933 9.500001 -0.106066
v 0.999999 9.500001 -0.150000
v 0.849999 9.500001 0.000000
v 0.893933 9.500001 0.106066
v 0.999999 9.500001 0.150000
v 1.106065 9.500001 0.106066
v 1.149999 9.500001 -0.000000
v 1.106065 9.500001 -0.106066
v -0.893935 9.500001 -0.106066
v -1.000001 9.500001 -0.150000
v -0.850001 9.500001 0.000000
v -0.893935 9.500001 0.106066
v -1.000001 9.500001 0.150000
v -1.106067 9.500001 0.106066
v -1.150001 9.500001 -0.000000
v -1.106067 9.500001 -0.106066
v 0.899999 10.000001 -0.075000
v 0.899999 10.053034 -0.053033
v 0.899999 10.075001 0.000000
v 0.899999 10.053034 0.053033
v 0.899999 10.000001 0.075000
v 0.899999 9.946968 0.053033
v 0.899999 9.925001 0.000000
v 0.899999 9.946968 -0.053033
v -0.900001 10.000001 -0.075000
v -0.900001 10.053034 -0.053033
v -0.900001 10.075001 -0.000000
v -0.900001 10.053034 0.053033
v -0.900001 10.000001 0.075000
v -0.900001 9.946968 0.053033
v -0.900001 9.925001 -0.000000
v -0.900001 9.946968 -0.053033
v 0.893933 10.500002 -0.106066
v 0.999999 10.500002 -0.150000
v 0.849999 10.500002 0.000000
v 0.893933 10.500002 0.106066
v 0.999999 10.500002 0.150000
v 1.106065 10.500002 0.106066
v 1.149999 10.500002 -0.000000
v 1.106065 10.500002 -0.106066
v -0.893935 10.500002 -0.106066
v -1.000001 10.500002 -0.150000
v -0.850001 10.500002 0.000000
v -0.893935 10.500002 0.106066
v -1.000001 10.500002 0.150000
v -1.106067 10.500002 0.106066
v -1.150001 10.500002 -0.000000
v -1.106067 10.500002 -0.106066
v 0.899999 11.000001 -0.075000
v 0.899999 11.053034 -0.053033
v 0.899999 11.075001 0.000000
v 0.899999 11.053034 0.053033
v 0.899999 11.000001 0.075000
v 0.899999 10.946968 0.053033
v 0.899999 10.925001 0.000000
v 0.899999 10.946968 -0.053033
v -0.900001 11.000001 -0.075000
v -0.900001 11.053034 -0.053033
v -0.900001 11.075001 -0.000000
v -0.900001 11.053034 0.053033
v -0.900001 11.000001 0.075000
v -0.900001 10.946968 0.053033
v -0.900001 10.925001 -0.000000
v -0.900001 10.946968 -0.053033
v 0.893933 11.500001 -0.106066
v 0.999999 11.500001 -0.150000
v 0.849999 11.500001 0.000000
v 0.893933 11.500001 0.106066
v 0.999999 11.500001 0.150000
v 1.106065 11.500001 0.106066
v 1.149999 11.500001 -0.000000
v 1.106065 11.500001 -0.106066
v -0.893935 11.500001 -0.106066
v -1.000001 11.500001 -0.150000
v -0.850001 11.500001 0.000000
v -0.893935 11.500001 0.106066
v -1.000001 11.500001 0.150000
v -1.106067 11.500001 0.106066
v -1.150001 11.500001 -0.000000
v -1.106067 11.500001 -0.106066
vn 0.9239 -0.0000 -0.3827
vn 0.3827 0.0000 0.9239
vn -0.9239 -0.0000 0.3827
vn -0.3827 -0.0000 -0.9239
vn 0.3827 0.0000 -0.9239
vn 0.9239 -0.0000 0.3827
vn -0.3827 -0.0000 0.9239
vn -0.9239 -0.0000 -0.3827
vn 0.0000 -1.0000 0.0000
vn 0.0000 1.0000 0.0000
vn -0.0000 -0.9239 0.3827
vn -0.0000 0.3827 0.9239
vn 0.0000 0.9239 -0.3827
vn 0.0000 -0.9239 -0.3827
vn -0.0000 -0.3827 0.9239
vn -0.0000 0.9239 0.3827
vn 0.0000 -0.3827 -0.9239
vn 0.0000 0.3827 -0.9239
usemtl Low_Poly_Ladder_02__Medium_Mat_01
s off
f 23//1 24//1 32//1 31//1
f 21//2 22//2 30//2 29//2
f 19//3 20//3 28//3 27//3
f 17//4 18//4 25//4 26//4
f 24//5 17//5 26//5 32//5
f 22//6 23//6 31//6 30//6
f 20//7 21//7 29//7 28//7
f 18//8 19//8 27//8 25//8
f 39//8 47//8 48//8 40//8
f 37//7 45//7 46//7 38//7
f 35//6 43//6 44//6 36//6
f 33//5 42//5 41//5 34//5
f 40//4 48//4 42//4 33//4
f 38//3 46//3 47//3 39//3
f 36//2 44//2 45//2 37//2
f 34//1 41//1 43//1 35//1
f 31//1 32//1 72//1 71//1
f 29//2 30//2 70//2 69//2
f 27//3 28//3 68//3 67//3
f 26//4 25//4 65//4 66//4
f 32//5 26//5 66//5 72//5
f 30//6 31//6 71//6 70//6
f 28//7 29//7 69//7 68//7
f 25//8 27//8 67//8 65//8
f 47//8 79//8 80//8 48//8
f 45//7 77//7 78//7 46//7
f 43//6 75//6 76//6 44//6
f 42//5 74//5 73//5 41//5
f 48//4 80//4 74//4 42//4
f 46//3 78//3 79//3 47//3
f 44//2 76//2 77//2 45//2
f 41//1 73//1 75//1 43//1
f 71//1 72//1 104//1 103//1
f 69//2 70//2 102//2 101//2
f 67//3 68//3 100//3 99//3
f 66//4 65//4 97//4 98//4
f 72//5 66//5 98//5 104//5
f 70//6 71//6 103//6 102//6
f 68//7 69//7 101//7 100//7
f 65//8 67//8 99//8 97//8
f 79//8 111//8 112//8 80//8
f 77//7 109//7 110//7 78//7
f 75//6 107//6 108//6 76//6
f 74//5 106//5 105//5 73//5
f 80//4 112//4 106//4 74//4
f 78//3 110//3 111//3 79//3
f 76//2 108//2 109//2 77//2
f 73//1 105//1 107//1 75//1
f 103//1 104//1 136//1 135//1
f 101//2 102//2 134//2 133//2
f 99//3 100//3 132//3 131//3
f 98//4 97//4 129//4 130//4
f 104//5 98//5 130//5 136//5
f 102//6 103//6 135//6 134//6
f 100//7 101//7 133//7 132//7
f 97//8 99//8 131//8 129//8
f 111//8 143//8 144//8 112//8
f 109//7 141//7 142//7 110//7
f 107//6 139//6 140//6 108//6
f 106//5 138//5 137//5 105//5
f 112//4 144//4 138//4 106//4
f 110//3 142//3 143//3 111//3
f 108//2 140//2 141//2 109//2
f 105//1 137//1 139//1 107//1
f 135//1 136//1 168//1 167//1
f 133//2 134//2 166//2 165//2
f 131//3 132//3 164//3 163//3
f 130//4 129//4 161//4 162//4
f 136//5 130//5 162//5 168//5
f 134//6 135//6 167//6 166//6
f 132//7 133//7 165//7 164//7
f 129//8 131//8 163//8 161//8
f 143//8 175//8 176//8 144//8
f 141//7 173//7 174//7 142//7
f 139//6 171//6 172//6 140//6
f 138//5 170//5 169//5 137//5
f 144//4 176//4 170//4 138//4
f 142//3 174//3 175//3 143//3
f 140//2 172//2 173//2 141//2
f 137//1 169//1 171//1 139//1
f 167//1 168//1 200//1 199//1
f 165//2 166//2 198//2 197//2
f 163//3 164//3 196//3 195//3
f 162//4 161//4 193//4 194//4
f 168//5 162//5 194//5 200//5
f 166//6 167//6 199//6 198//6
f 164//7 165//7 197//7 196//7
f 161//8 163//8 195//8 193//8
f 175//8 207//8 208//8 176//8
f 173//7 205//7 206//7 174//7
f 171//6 203//6 204//6 172//6
f 170//5 202//5 201//5 169//5
f 176//4 208//4 202//4 170//4
f 174//3 206//3 207//3 175//3
f 172//2 204//2 205//2 173//2
f 169//1 201//1 203//1 171//1
f 199//1 200//1 232//1 231//1
f 197//2 198//2 230//2 229//2
f 195//3 196//3 228//3 227//3
f 194//4 193//4 225//4 226//4
f 200//5 194//5 226//5 232//5
f 198//6 199//6 231//6 230//6
f 196//7 197//7 229//7 228//7
f 193//8 195//8 227//8 225//8
f 207//8 239//8 240//8 208//8
f 205//7 237//7 238//7 206//7
f 203//6 235//6 236//6 204//6
f 202//5 234//5 233//5 201//5
f 208//4 240//4 234//4 202//4
f 206//3 238//3 239//3 207//3
f 204//2 236//2 237//2 205//2
f 201//1 233//1 235//1 203//1
f 231//1 232//1 264//1 263//1
f 229//2 230//2 262//2 261//2
f 227//3 228//3 260//3 259//3
f 226//4 225//4 257//4 258//4
f 232//5 226//5 258//5 264//5
f 230//6 231//6 263//6 262//6
f 228//7 229//7 261//7 260//7
f 225//8 227//8 259//8 257//8
f 239//8 271//8 272//8 240//8
f 237//7 269//7 270//7 238//7
f 235//6 267//6 268//6 236//6
f 234//5 266//5 265//5 233//5
f 240//4 272//4 266//4 234//4
f 238//3 270//3 271//3 239//3
f 236//2 268//2 269//2 237//2
f 233//1 265//1 267//1 235//1
f 263//1 264//1 296//1 295//1
f 261//2 262//2 294//2 293//2
f 259//3 260//3 292//3 291//3
f 258//4 257//4 289//4 290//4
f 264//5 258//5 290//5 296//5
f 262//6 263//6 295//6 294//6
f 260//7 261//7 293//7 292//7
f 257//8 259//8 291//8 289//8
f 271//8 303//8 304//8 272//8
f 269//7 301//7 302//7 270//7
f 267//6 299//6 300//6 268//6
f 266//5 298//5 297//5 265//5
f 272//4 304//4 298//4 266//4
f 270//3 302//3 303//3 271//3
f 268//2 300//2 301//2 269//2
f 265//1 297//1 299//1 267//1
f 295//1 296//1 328//1 327//1
f 293//2 294//2 326//2 325//2
f 291//3 292//3 324//3 323//3
f 290//4 289//4 321//4 322//4
f 296//5 290//5 322//5 328//5
f 294//6 295//6 327//6 326//6
f 292//7 293//7 325//7 324//7
f 289//8 291//8 323//8 321//8
f 303//8 335//8 336//8 304//8
f 301//7 333//7 334//7 302//7
f 299//6 331//6 332//6 300//6
f 298//5 330//5 329//5 297//5
f 304//4 336//4 330//4 298//4
f 302//3 334//3 335//3 303//3
f 300//2 332//2 333//2 301//2
f 297//1 329//1 331//1 299//1
f 327//1 328//1 360//1 359//1
f 325//2 326//2 358//2 357//2
f 323//3 324//3 356//3 355//3
f 322//4 321//4 353//4 354//4
f 328//5 322//5 354//5 360//5
f 326//6 327//6 359//6 358//6
f 324//7 325//7 357//7 356//7
f 321//8 323//8 355//8 353//8
f 335//8 367//8 368//8 336//8
f 333//7 365//7 366//7 334//7
f 331//6 363//6 364//6 332//6
f 330//5 362//5 361//5 329//5
f 336//4 368//4 362//4 330//4
f 334//3 366//3 367//3 335//3
f 332//2 364//2 365//2 333//2
f 329//1 361//1 363//1 331//1
f 359//1 360//1 392//1 391//1
f 357//2 358//2 390//2 389//2
f 355//3 356//3 388//3 387//3
f 354//4 353//4 385//4 386//4
f 360//5 354//5 386//5 392//5
f 358//6 359//6 391//6 390//6
f 356//7 357//7 389//7 388//7
f 353//8 355//8 387//8 385//8
f 367//8 399//8 400//8 368//8
f 365//7 397//7 398//7 366//7
f 363//6 395//6 396//6 364//6
f 362//5 394//5 393//5 361//5
f 368//4 400//4 394//4 362//4
f 366//3 398//3 399//3 367//3
f 364//2 396//2 397//2 365//2
f 361//1 393//1 395//1 363//1
f 18//9 17//9 24//9 23//9 22//9 21//9 20//9 19//9
f 34//9 35//9 36//9 37//9 38//9 39//9 40//9 33//9
f 393//10 394//10 400//10 399//10 398//10 397//10 396//10 395//10
f 385//10 387//10 388//10 389//10 390//10 391//10 392//10 386//10
usemtl Low_Poly_Ladder_02_Medium_Mat_02
f 6//11 14//11 15//11 7//11
f 4//12 12//12 13//12 5//12
f 2//13 10//13 11//13 3//13
f 7//14 15//14 16//14 8//14
f 5//15 13//15 14//15 6//15
f 3//16 11//16 12//16 4//16
f 8//17 16//17 9//17 1//17
f 1//18 9//18 10//18 2//18
f 54//11 62//11 63//11 55//11
f 52//12 60//12 61//12 53//12
f 50//13 58//13 59//13 51//13
f 55//14 63//14 64//14 56//14
f 53//15 61//15 62//15 54//15
f 51//16 59//16 60//16 52//16
f 56//17 64//17 57//17 49//17
f 49//18 57//18 58//18 50//18
f 86//11 94//11 95//11 87//11
f 84//12 92//12 93//12 85//12
f 82//13 90//13 91//13 83//13
f 87//14 95//14 96//14 88//14
f 85//15 93//15 94//15 86//15
f 83//16 91//16 92//16 84//16
f 88//17 96//17 89//17 81//17
f 81//18 89//18 90//18 82//18
f 118//11 126//11 127//11 119//11
f 116//12 124//12 125//12 117//12
f 114//13 122//13 123//13 115//13
f 119//14 127//14 128//14 120//14
f 117//15 125//15 126//15 118//15
f 115//16 123//16 124//16 116//16
f 120//17 128//17 121//17 113//17
f 113//18 121//18 122//18 114//18
f 150//11 158//11 159//11 151//11
f 148//12 156//12 157//12 149//12
f 146//13 154//13 155//13 147//13
f 151//14 159//14 160//14 152//14
f 149//15 157//15 158//15 150//15
f 147//16 155//16 156//16 148//16
f 152//17 160//17 153//17 145//17
f 145//18 153//18 154//18 146//18
f 182//11 190//11 191//11 183//11
f 180//12 188//12 189//12 181//12
f 178//13 186//13 187//13 179//13
f 183//14 191//14 192//14 184//14
f 181//15 189//15 190//15 182//15
f 179//16 187//16 188//16 180//16
f 184//17 192//17 185//17 177//17
f 177//18 185//18 186//18 178//18
f 214//11 222//11 223//11 215//11
f 212//12 220//12 221//12 213//12
f 210//13 218//13 219//13 211//13
f 215//14 223//14 224//14 216//14
f 213//15 221//15 222//15 214//15
f 211//16 219//16 220//16 212//16
f 216//17 224//17 217//17 209//17
f 209//18 217//18 218//18 210//18
f 246//11 254//11 255//11 247//11
f 244//12 252//12 253//12 245//12
f 242//13 250//13 251//13 243//13
f 247//14 255//14 256//14 248//14
f 245//15 253//15 254//15 246//15
f 243//16 251//16 252//16 244//16
f 248//17 256//17 249//17 241//17
f 241//18 249//18 250//18 242//18
f 278//11 286//11 287//11 279//11
f 276//12 284//12 285//12 277//12
f 274//13 282//13 283//13 275//13
f 279//14 287//14 288//14 280//14
f 277//15 285//15 286//15 278//15
f 275//16 283//16 284//16 276//16
f 280//17 288//17 281//17 273//17
f 273//18 281//18 282//18 274//18
f 310//11 318//11 319//11 311//11
f 308//12 316//12 317//12 309//12
f 306//13 314//13 315//13 307//13
f 311//14 319//14 320//14 312//14
f 309//15 317//15 318//15 310//15
f 307//16 315//16 316//16 308//16
f 312//17 320//17 313//17 305//17
f 305//18 313//18 314//18 306//18
f 342//11 350//11 351//11 343//11
f 340//12 348//12 349//12 341//12
f 338//13 346//13 347//13 339//13
f 343//14 351//14 352//14 344//14
f 341//15 349//15 350//15 342//15
f 339//16 347//16 348//16 340//16
f 344//17 352//17 345//17 337//17
f 337//18 345//18 346//18 338//18
f 374//11 382//11 383//11 375//11
f 372//12 380//12 381//12 373//12
f 370//13 378//13 379//13 371//13
f 375//14 383//14 384//14 376//14
f 373//15 381//15 382//15 374//15
f 371//16 379//16 380//16 372//16
f 376//17 384//17 377//17 369//17
f 369//18 377//18 378//18 370//18
